<?xml version="1.0" encoding="UTF-8"?>
<!DOCTYPE svg PUBLIC "-//W3C//DTD SVG 1.1//EN"
    "http://www.w3.org/Graphics/SVG/1.1/DTD/svg11.dtd"><svg xmlns="http://www.w3.org/2000/svg" height="200.0000" stroke-opacity="1" viewBox="0 0 200 200" font-size="1" width="200.0000" xmlns:xlink="http://www.w3.org/1999/xlink" stroke="rgb(0,0,0)" version="1.1"><defs></defs><defs></defs><g stroke-linejoin="miter" stroke-opacity="1.0" fill-opacity="1.0" stroke="rgb(0,0,0)" stroke-width="0.0" fill="rgb(0,0,255)" stroke-linecap="butt" stroke-miterlimit="10.0"><path d="M 69.4288,174.0283 c 0.0000,-13.5751 -11.0048,-24.5798 -24.5798 -24.5798c -13.5751,-0.0000 -24.5798,11.0048 -24.5798 24.5798c -0.0000,13.5751 11.0048,24.5798 24.5798 24.5798c 13.5751,0.0000 24.5798,-11.0048 24.5798 -24.5798Z"/></g><defs></defs><g stroke-linejoin="miter" stroke-opacity="1.0" fill-opacity="1.0" stroke="rgb(0,0,0)" stroke-width="0.0" fill="rgb(0,0,255)" stroke-linecap="butt" stroke-miterlimit="10.0"><path d="M 130.8784,67.5945 c 0.0000,-13.5751 -11.0048,-24.5798 -24.5798 -24.5798c -13.5751,-0.0000 -24.5798,11.0048 -24.5798 24.5798c -0.0000,13.5751 11.0048,24.5798 24.5798 24.5798c 13.5751,0.0000 24.5798,-11.0048 24.5798 -24.5798Z"/></g><defs></defs><g stroke-linejoin="miter" stroke-opacity="1.0" fill-opacity="1.0" stroke="rgb(0,0,0)" stroke-width="0.0" fill="rgb(0,0,255)" stroke-linecap="butt" stroke-miterlimit="10.0"><path d="M 192.3280,174.0283 c 0.0000,-13.5751 -11.0048,-24.5798 -24.5798 -24.5798c -13.5751,-0.0000 -24.5798,11.0048 -24.5798 24.5798c -0.0000,13.5751 11.0048,24.5798 24.5798 24.5798c 13.5751,0.0000 24.5798,-11.0048 24.5798 -24.5798Z"/></g><defs></defs><g stroke-linejoin="miter" stroke-opacity="1.0" fill-opacity="1.0" stroke="rgb(0,0,0)" stroke-width="0.0" fill="rgb(0,0,0)" stroke-linecap="butt" stroke-miterlimit="10.0"><path d="M 14.1242,200.0000 l -0.0000,-122.8992 h -0.6145 l -0.0000,122.8992 Z"/></g><defs></defs><g stroke-linejoin="miter" stroke-opacity="1.0" fill-opacity="1.0" stroke="rgb(255,165,0)" stroke-width="2.0" fill="rgb(255,255,0)" stroke-linecap="butt" stroke-miterlimit="10.0"><path d="M 19.9619,6.1450 c 0.0000,-3.3938 -2.7512,-6.1450 -6.1450 -6.1450c -3.3938,-0.0000 -6.1450,2.7512 -6.1450 6.1450c -0.0000,3.3938 2.7512,6.1450 6.1450 6.1450c 3.3938,0.0000 6.1450,-2.7512 6.1450 -6.1450Z"/></g></svg>